%TF.GenerationSoftware,KiCad,Pcbnew,9.0.6*%
%TF.CreationDate,2026-01-06T14:18:23+01:00*%
%TF.ProjectId,EnviroLind,456e7669-726f-44c6-996e-642e6b696361,rev?*%
%TF.SameCoordinates,Original*%
%TF.FileFunction,Legend,Bot*%
%TF.FilePolarity,Positive*%
%FSLAX46Y46*%
G04 Gerber Fmt 4.6, Leading zero omitted, Abs format (unit mm)*
G04 Created by KiCad (PCBNEW 9.0.6) date 2026-01-06 14:18:23*
%MOMM*%
%LPD*%
G01*
G04 APERTURE LIST*
G04 Aperture macros list*
%AMRoundRect*
0 Rectangle with rounded corners*
0 $1 Rounding radius*
0 $2 $3 $4 $5 $6 $7 $8 $9 X,Y pos of 4 corners*
0 Add a 4 corners polygon primitive as box body*
4,1,4,$2,$3,$4,$5,$6,$7,$8,$9,$2,$3,0*
0 Add four circle primitives for the rounded corners*
1,1,$1+$1,$2,$3*
1,1,$1+$1,$4,$5*
1,1,$1+$1,$6,$7*
1,1,$1+$1,$8,$9*
0 Add four rect primitives between the rounded corners*
20,1,$1+$1,$2,$3,$4,$5,0*
20,1,$1+$1,$4,$5,$6,$7,0*
20,1,$1+$1,$6,$7,$8,$9,0*
20,1,$1+$1,$8,$9,$2,$3,0*%
G04 Aperture macros list end*
%ADD10C,0.300000*%
%ADD11C,0.099822*%
%ADD12C,0.100000*%
%ADD13C,0.150000*%
%ADD14C,0.120000*%
%ADD15C,0.650000*%
%ADD16O,1.000000X2.100000*%
%ADD17O,1.000000X1.600000*%
%ADD18C,1.000000*%
%ADD19RoundRect,0.250000X0.625000X-0.350000X0.625000X0.350000X-0.625000X0.350000X-0.625000X-0.350000X0*%
%ADD20O,1.750000X1.200000*%
G04 APERTURE END LIST*
D10*
X105515889Y-100306482D02*
X105015889Y-100306482D01*
X104801603Y-101092196D02*
X105515889Y-101092196D01*
X105515889Y-101092196D02*
X105515889Y-99592196D01*
X105515889Y-99592196D02*
X104801603Y-99592196D01*
X104158746Y-100092196D02*
X104158746Y-101092196D01*
X104158746Y-100235053D02*
X104087317Y-100163625D01*
X104087317Y-100163625D02*
X103944460Y-100092196D01*
X103944460Y-100092196D02*
X103730174Y-100092196D01*
X103730174Y-100092196D02*
X103587317Y-100163625D01*
X103587317Y-100163625D02*
X103515889Y-100306482D01*
X103515889Y-100306482D02*
X103515889Y-101092196D01*
X102944460Y-100092196D02*
X102587317Y-101092196D01*
X102587317Y-101092196D02*
X102230174Y-100092196D01*
X101658746Y-101092196D02*
X101658746Y-100092196D01*
X101658746Y-99592196D02*
X101730174Y-99663625D01*
X101730174Y-99663625D02*
X101658746Y-99735053D01*
X101658746Y-99735053D02*
X101587317Y-99663625D01*
X101587317Y-99663625D02*
X101658746Y-99592196D01*
X101658746Y-99592196D02*
X101658746Y-99735053D01*
X100944460Y-101092196D02*
X100944460Y-100092196D01*
X100944460Y-100377910D02*
X100873031Y-100235053D01*
X100873031Y-100235053D02*
X100801603Y-100163625D01*
X100801603Y-100163625D02*
X100658745Y-100092196D01*
X100658745Y-100092196D02*
X100515888Y-100092196D01*
X99801603Y-101092196D02*
X99944460Y-101020768D01*
X99944460Y-101020768D02*
X100015889Y-100949339D01*
X100015889Y-100949339D02*
X100087317Y-100806482D01*
X100087317Y-100806482D02*
X100087317Y-100377910D01*
X100087317Y-100377910D02*
X100015889Y-100235053D01*
X100015889Y-100235053D02*
X99944460Y-100163625D01*
X99944460Y-100163625D02*
X99801603Y-100092196D01*
X99801603Y-100092196D02*
X99587317Y-100092196D01*
X99587317Y-100092196D02*
X99444460Y-100163625D01*
X99444460Y-100163625D02*
X99373032Y-100235053D01*
X99373032Y-100235053D02*
X99301603Y-100377910D01*
X99301603Y-100377910D02*
X99301603Y-100806482D01*
X99301603Y-100806482D02*
X99373032Y-100949339D01*
X99373032Y-100949339D02*
X99444460Y-101020768D01*
X99444460Y-101020768D02*
X99587317Y-101092196D01*
X99587317Y-101092196D02*
X99801603Y-101092196D01*
X97944460Y-101092196D02*
X98658746Y-101092196D01*
X98658746Y-101092196D02*
X98658746Y-99592196D01*
X97444460Y-101092196D02*
X97444460Y-100092196D01*
X97444460Y-99592196D02*
X97515888Y-99663625D01*
X97515888Y-99663625D02*
X97444460Y-99735053D01*
X97444460Y-99735053D02*
X97373031Y-99663625D01*
X97373031Y-99663625D02*
X97444460Y-99592196D01*
X97444460Y-99592196D02*
X97444460Y-99735053D01*
X96730174Y-100092196D02*
X96730174Y-101092196D01*
X96730174Y-100235053D02*
X96658745Y-100163625D01*
X96658745Y-100163625D02*
X96515888Y-100092196D01*
X96515888Y-100092196D02*
X96301602Y-100092196D01*
X96301602Y-100092196D02*
X96158745Y-100163625D01*
X96158745Y-100163625D02*
X96087317Y-100306482D01*
X96087317Y-100306482D02*
X96087317Y-101092196D01*
X94730174Y-101092196D02*
X94730174Y-99592196D01*
X94730174Y-101020768D02*
X94873031Y-101092196D01*
X94873031Y-101092196D02*
X95158745Y-101092196D01*
X95158745Y-101092196D02*
X95301602Y-101020768D01*
X95301602Y-101020768D02*
X95373031Y-100949339D01*
X95373031Y-100949339D02*
X95444459Y-100806482D01*
X95444459Y-100806482D02*
X95444459Y-100377910D01*
X95444459Y-100377910D02*
X95373031Y-100235053D01*
X95373031Y-100235053D02*
X95301602Y-100163625D01*
X95301602Y-100163625D02*
X95158745Y-100092196D01*
X95158745Y-100092196D02*
X94873031Y-100092196D01*
X94873031Y-100092196D02*
X94730174Y-100163625D01*
X105087317Y-104078541D02*
X105158746Y-104007112D01*
X105158746Y-104007112D02*
X105301603Y-103792826D01*
X105301603Y-103792826D02*
X105373032Y-103649969D01*
X105373032Y-103649969D02*
X105444460Y-103435684D01*
X105444460Y-103435684D02*
X105515889Y-103078541D01*
X105515889Y-103078541D02*
X105515889Y-102792826D01*
X105515889Y-102792826D02*
X105444460Y-102435684D01*
X105444460Y-102435684D02*
X105373032Y-102221398D01*
X105373032Y-102221398D02*
X105301603Y-102078541D01*
X105301603Y-102078541D02*
X105158746Y-101864255D01*
X105158746Y-101864255D02*
X105087317Y-101792826D01*
X103873032Y-103435684D02*
X104015889Y-103507112D01*
X104015889Y-103507112D02*
X104301603Y-103507112D01*
X104301603Y-103507112D02*
X104444460Y-103435684D01*
X104444460Y-103435684D02*
X104515889Y-103364255D01*
X104515889Y-103364255D02*
X104587317Y-103221398D01*
X104587317Y-103221398D02*
X104587317Y-102792826D01*
X104587317Y-102792826D02*
X104515889Y-102649969D01*
X104515889Y-102649969D02*
X104444460Y-102578541D01*
X104444460Y-102578541D02*
X104301603Y-102507112D01*
X104301603Y-102507112D02*
X104015889Y-102507112D01*
X104015889Y-102507112D02*
X103873032Y-102578541D01*
X103373032Y-104078541D02*
X103301603Y-104007112D01*
X103301603Y-104007112D02*
X103158746Y-103792826D01*
X103158746Y-103792826D02*
X103087318Y-103649969D01*
X103087318Y-103649969D02*
X103015889Y-103435684D01*
X103015889Y-103435684D02*
X102944460Y-103078541D01*
X102944460Y-103078541D02*
X102944460Y-102792826D01*
X102944460Y-102792826D02*
X103015889Y-102435684D01*
X103015889Y-102435684D02*
X103087318Y-102221398D01*
X103087318Y-102221398D02*
X103158746Y-102078541D01*
X103158746Y-102078541D02*
X103301603Y-101864255D01*
X103301603Y-101864255D02*
X103373032Y-101792826D01*
X101158746Y-102149969D02*
X101087318Y-102078541D01*
X101087318Y-102078541D02*
X100944461Y-102007112D01*
X100944461Y-102007112D02*
X100587318Y-102007112D01*
X100587318Y-102007112D02*
X100444461Y-102078541D01*
X100444461Y-102078541D02*
X100373032Y-102149969D01*
X100373032Y-102149969D02*
X100301603Y-102292826D01*
X100301603Y-102292826D02*
X100301603Y-102435684D01*
X100301603Y-102435684D02*
X100373032Y-102649969D01*
X100373032Y-102649969D02*
X101230175Y-103507112D01*
X101230175Y-103507112D02*
X100301603Y-103507112D01*
X99373032Y-102007112D02*
X99230175Y-102007112D01*
X99230175Y-102007112D02*
X99087318Y-102078541D01*
X99087318Y-102078541D02*
X99015890Y-102149969D01*
X99015890Y-102149969D02*
X98944461Y-102292826D01*
X98944461Y-102292826D02*
X98873032Y-102578541D01*
X98873032Y-102578541D02*
X98873032Y-102935684D01*
X98873032Y-102935684D02*
X98944461Y-103221398D01*
X98944461Y-103221398D02*
X99015890Y-103364255D01*
X99015890Y-103364255D02*
X99087318Y-103435684D01*
X99087318Y-103435684D02*
X99230175Y-103507112D01*
X99230175Y-103507112D02*
X99373032Y-103507112D01*
X99373032Y-103507112D02*
X99515890Y-103435684D01*
X99515890Y-103435684D02*
X99587318Y-103364255D01*
X99587318Y-103364255D02*
X99658747Y-103221398D01*
X99658747Y-103221398D02*
X99730175Y-102935684D01*
X99730175Y-102935684D02*
X99730175Y-102578541D01*
X99730175Y-102578541D02*
X99658747Y-102292826D01*
X99658747Y-102292826D02*
X99587318Y-102149969D01*
X99587318Y-102149969D02*
X99515890Y-102078541D01*
X99515890Y-102078541D02*
X99373032Y-102007112D01*
X98301604Y-102149969D02*
X98230176Y-102078541D01*
X98230176Y-102078541D02*
X98087319Y-102007112D01*
X98087319Y-102007112D02*
X97730176Y-102007112D01*
X97730176Y-102007112D02*
X97587319Y-102078541D01*
X97587319Y-102078541D02*
X97515890Y-102149969D01*
X97515890Y-102149969D02*
X97444461Y-102292826D01*
X97444461Y-102292826D02*
X97444461Y-102435684D01*
X97444461Y-102435684D02*
X97515890Y-102649969D01*
X97515890Y-102649969D02*
X98373033Y-103507112D01*
X98373033Y-103507112D02*
X97444461Y-103507112D01*
X96158748Y-102007112D02*
X96444462Y-102007112D01*
X96444462Y-102007112D02*
X96587319Y-102078541D01*
X96587319Y-102078541D02*
X96658748Y-102149969D01*
X96658748Y-102149969D02*
X96801605Y-102364255D01*
X96801605Y-102364255D02*
X96873033Y-102649969D01*
X96873033Y-102649969D02*
X96873033Y-103221398D01*
X96873033Y-103221398D02*
X96801605Y-103364255D01*
X96801605Y-103364255D02*
X96730176Y-103435684D01*
X96730176Y-103435684D02*
X96587319Y-103507112D01*
X96587319Y-103507112D02*
X96301605Y-103507112D01*
X96301605Y-103507112D02*
X96158748Y-103435684D01*
X96158748Y-103435684D02*
X96087319Y-103364255D01*
X96087319Y-103364255D02*
X96015890Y-103221398D01*
X96015890Y-103221398D02*
X96015890Y-102864255D01*
X96015890Y-102864255D02*
X96087319Y-102721398D01*
X96087319Y-102721398D02*
X96158748Y-102649969D01*
X96158748Y-102649969D02*
X96301605Y-102578541D01*
X96301605Y-102578541D02*
X96587319Y-102578541D01*
X96587319Y-102578541D02*
X96730176Y-102649969D01*
X96730176Y-102649969D02*
X96801605Y-102721398D01*
X96801605Y-102721398D02*
X96873033Y-102864255D01*
X94230177Y-102721398D02*
X93730177Y-102721398D01*
X93515891Y-103507112D02*
X94230177Y-103507112D01*
X94230177Y-103507112D02*
X94230177Y-102007112D01*
X94230177Y-102007112D02*
X93515891Y-102007112D01*
X92873034Y-103507112D02*
X92873034Y-102507112D01*
X92873034Y-102792826D02*
X92801605Y-102649969D01*
X92801605Y-102649969D02*
X92730177Y-102578541D01*
X92730177Y-102578541D02*
X92587319Y-102507112D01*
X92587319Y-102507112D02*
X92444462Y-102507112D01*
X91944463Y-103507112D02*
X91944463Y-102507112D01*
X91944463Y-102007112D02*
X92015891Y-102078541D01*
X92015891Y-102078541D02*
X91944463Y-102149969D01*
X91944463Y-102149969D02*
X91873034Y-102078541D01*
X91873034Y-102078541D02*
X91944463Y-102007112D01*
X91944463Y-102007112D02*
X91944463Y-102149969D01*
X90587320Y-103435684D02*
X90730177Y-103507112D01*
X90730177Y-103507112D02*
X91015891Y-103507112D01*
X91015891Y-103507112D02*
X91158748Y-103435684D01*
X91158748Y-103435684D02*
X91230177Y-103364255D01*
X91230177Y-103364255D02*
X91301605Y-103221398D01*
X91301605Y-103221398D02*
X91301605Y-102792826D01*
X91301605Y-102792826D02*
X91230177Y-102649969D01*
X91230177Y-102649969D02*
X91158748Y-102578541D01*
X91158748Y-102578541D02*
X91015891Y-102507112D01*
X91015891Y-102507112D02*
X90730177Y-102507112D01*
X90730177Y-102507112D02*
X90587320Y-102578541D01*
X88087320Y-103507112D02*
X88801606Y-103507112D01*
X88801606Y-103507112D02*
X88801606Y-102007112D01*
X87587320Y-103507112D02*
X87587320Y-102507112D01*
X87587320Y-102007112D02*
X87658748Y-102078541D01*
X87658748Y-102078541D02*
X87587320Y-102149969D01*
X87587320Y-102149969D02*
X87515891Y-102078541D01*
X87515891Y-102078541D02*
X87587320Y-102007112D01*
X87587320Y-102007112D02*
X87587320Y-102149969D01*
X86873034Y-102507112D02*
X86873034Y-103507112D01*
X86873034Y-102649969D02*
X86801605Y-102578541D01*
X86801605Y-102578541D02*
X86658748Y-102507112D01*
X86658748Y-102507112D02*
X86444462Y-102507112D01*
X86444462Y-102507112D02*
X86301605Y-102578541D01*
X86301605Y-102578541D02*
X86230177Y-102721398D01*
X86230177Y-102721398D02*
X86230177Y-103507112D01*
X84873034Y-103507112D02*
X84873034Y-102007112D01*
X84873034Y-103435684D02*
X85015891Y-103507112D01*
X85015891Y-103507112D02*
X85301605Y-103507112D01*
X85301605Y-103507112D02*
X85444462Y-103435684D01*
X85444462Y-103435684D02*
X85515891Y-103364255D01*
X85515891Y-103364255D02*
X85587319Y-103221398D01*
X85587319Y-103221398D02*
X85587319Y-102792826D01*
X85587319Y-102792826D02*
X85515891Y-102649969D01*
X85515891Y-102649969D02*
X85444462Y-102578541D01*
X85444462Y-102578541D02*
X85301605Y-102507112D01*
X85301605Y-102507112D02*
X85015891Y-102507112D01*
X85015891Y-102507112D02*
X84873034Y-102578541D01*
X104658746Y-105922028D02*
X105158746Y-105207742D01*
X105515889Y-105922028D02*
X105515889Y-104422028D01*
X105515889Y-104422028D02*
X104944460Y-104422028D01*
X104944460Y-104422028D02*
X104801603Y-104493457D01*
X104801603Y-104493457D02*
X104730174Y-104564885D01*
X104730174Y-104564885D02*
X104658746Y-104707742D01*
X104658746Y-104707742D02*
X104658746Y-104922028D01*
X104658746Y-104922028D02*
X104730174Y-105064885D01*
X104730174Y-105064885D02*
X104801603Y-105136314D01*
X104801603Y-105136314D02*
X104944460Y-105207742D01*
X104944460Y-105207742D02*
X105515889Y-105207742D01*
X103444460Y-105850600D02*
X103587317Y-105922028D01*
X103587317Y-105922028D02*
X103873032Y-105922028D01*
X103873032Y-105922028D02*
X104015889Y-105850600D01*
X104015889Y-105850600D02*
X104087317Y-105707742D01*
X104087317Y-105707742D02*
X104087317Y-105136314D01*
X104087317Y-105136314D02*
X104015889Y-104993457D01*
X104015889Y-104993457D02*
X103873032Y-104922028D01*
X103873032Y-104922028D02*
X103587317Y-104922028D01*
X103587317Y-104922028D02*
X103444460Y-104993457D01*
X103444460Y-104993457D02*
X103373032Y-105136314D01*
X103373032Y-105136314D02*
X103373032Y-105279171D01*
X103373032Y-105279171D02*
X104087317Y-105422028D01*
X102873032Y-104922028D02*
X102515889Y-105922028D01*
X102515889Y-105922028D02*
X102158746Y-104922028D01*
X101587318Y-105779171D02*
X101515889Y-105850600D01*
X101515889Y-105850600D02*
X101587318Y-105922028D01*
X101587318Y-105922028D02*
X101658746Y-105850600D01*
X101658746Y-105850600D02*
X101587318Y-105779171D01*
X101587318Y-105779171D02*
X101587318Y-105922028D01*
X99801603Y-105493457D02*
X99087318Y-105493457D01*
X99944460Y-105922028D02*
X99444460Y-104422028D01*
X99444460Y-104422028D02*
X98944460Y-105922028D01*
D11*
X87780904Y-92026291D02*
X87399951Y-91759624D01*
X87780904Y-91569148D02*
X86980904Y-91569148D01*
X86980904Y-91569148D02*
X86980904Y-91873910D01*
X86980904Y-91873910D02*
X87018999Y-91950100D01*
X87018999Y-91950100D02*
X87057094Y-91988195D01*
X87057094Y-91988195D02*
X87133285Y-92026291D01*
X87133285Y-92026291D02*
X87247570Y-92026291D01*
X87247570Y-92026291D02*
X87323761Y-91988195D01*
X87323761Y-91988195D02*
X87361856Y-91950100D01*
X87361856Y-91950100D02*
X87399951Y-91873910D01*
X87399951Y-91873910D02*
X87399951Y-91569148D01*
X87742809Y-92673910D02*
X87780904Y-92597719D01*
X87780904Y-92597719D02*
X87780904Y-92445338D01*
X87780904Y-92445338D02*
X87742809Y-92369148D01*
X87742809Y-92369148D02*
X87666618Y-92331052D01*
X87666618Y-92331052D02*
X87361856Y-92331052D01*
X87361856Y-92331052D02*
X87285666Y-92369148D01*
X87285666Y-92369148D02*
X87247570Y-92445338D01*
X87247570Y-92445338D02*
X87247570Y-92597719D01*
X87247570Y-92597719D02*
X87285666Y-92673910D01*
X87285666Y-92673910D02*
X87361856Y-92712005D01*
X87361856Y-92712005D02*
X87438047Y-92712005D01*
X87438047Y-92712005D02*
X87514237Y-92331052D01*
X87742809Y-93016766D02*
X87780904Y-93092957D01*
X87780904Y-93092957D02*
X87780904Y-93245338D01*
X87780904Y-93245338D02*
X87742809Y-93321528D01*
X87742809Y-93321528D02*
X87666618Y-93359624D01*
X87666618Y-93359624D02*
X87628523Y-93359624D01*
X87628523Y-93359624D02*
X87552332Y-93321528D01*
X87552332Y-93321528D02*
X87514237Y-93245338D01*
X87514237Y-93245338D02*
X87514237Y-93131052D01*
X87514237Y-93131052D02*
X87476142Y-93054862D01*
X87476142Y-93054862D02*
X87399951Y-93016766D01*
X87399951Y-93016766D02*
X87361856Y-93016766D01*
X87361856Y-93016766D02*
X87285666Y-93054862D01*
X87285666Y-93054862D02*
X87247570Y-93131052D01*
X87247570Y-93131052D02*
X87247570Y-93245338D01*
X87247570Y-93245338D02*
X87285666Y-93321528D01*
X87742809Y-94007243D02*
X87780904Y-93931052D01*
X87780904Y-93931052D02*
X87780904Y-93778671D01*
X87780904Y-93778671D02*
X87742809Y-93702481D01*
X87742809Y-93702481D02*
X87666618Y-93664385D01*
X87666618Y-93664385D02*
X87361856Y-93664385D01*
X87361856Y-93664385D02*
X87285666Y-93702481D01*
X87285666Y-93702481D02*
X87247570Y-93778671D01*
X87247570Y-93778671D02*
X87247570Y-93931052D01*
X87247570Y-93931052D02*
X87285666Y-94007243D01*
X87285666Y-94007243D02*
X87361856Y-94045338D01*
X87361856Y-94045338D02*
X87438047Y-94045338D01*
X87438047Y-94045338D02*
X87514237Y-93664385D01*
X87247570Y-94273909D02*
X87247570Y-94578671D01*
X86980904Y-94388195D02*
X87666618Y-94388195D01*
X87666618Y-94388195D02*
X87742809Y-94426290D01*
X87742809Y-94426290D02*
X87780904Y-94502480D01*
X87780904Y-94502480D02*
X87780904Y-94578671D01*
D12*
X110928094Y-92868595D02*
X111194761Y-92487642D01*
X111385237Y-92868595D02*
X111385237Y-92068595D01*
X111385237Y-92068595D02*
X111080475Y-92068595D01*
X111080475Y-92068595D02*
X111004285Y-92106690D01*
X111004285Y-92106690D02*
X110966190Y-92144785D01*
X110966190Y-92144785D02*
X110928094Y-92220976D01*
X110928094Y-92220976D02*
X110928094Y-92335261D01*
X110928094Y-92335261D02*
X110966190Y-92411452D01*
X110966190Y-92411452D02*
X111004285Y-92449547D01*
X111004285Y-92449547D02*
X111080475Y-92487642D01*
X111080475Y-92487642D02*
X111385237Y-92487642D01*
X110623333Y-92830500D02*
X110509047Y-92868595D01*
X110509047Y-92868595D02*
X110318571Y-92868595D01*
X110318571Y-92868595D02*
X110242380Y-92830500D01*
X110242380Y-92830500D02*
X110204285Y-92792404D01*
X110204285Y-92792404D02*
X110166190Y-92716214D01*
X110166190Y-92716214D02*
X110166190Y-92640023D01*
X110166190Y-92640023D02*
X110204285Y-92563833D01*
X110204285Y-92563833D02*
X110242380Y-92525738D01*
X110242380Y-92525738D02*
X110318571Y-92487642D01*
X110318571Y-92487642D02*
X110470952Y-92449547D01*
X110470952Y-92449547D02*
X110547142Y-92411452D01*
X110547142Y-92411452D02*
X110585237Y-92373357D01*
X110585237Y-92373357D02*
X110623333Y-92297166D01*
X110623333Y-92297166D02*
X110623333Y-92220976D01*
X110623333Y-92220976D02*
X110585237Y-92144785D01*
X110585237Y-92144785D02*
X110547142Y-92106690D01*
X110547142Y-92106690D02*
X110470952Y-92068595D01*
X110470952Y-92068595D02*
X110280475Y-92068595D01*
X110280475Y-92068595D02*
X110166190Y-92106690D01*
X109937618Y-92068595D02*
X109480475Y-92068595D01*
X109709047Y-92868595D02*
X109709047Y-92068595D01*
X103936666Y-92274895D02*
X103669999Y-93074895D01*
X103669999Y-93074895D02*
X103403333Y-92274895D01*
X102679523Y-92998704D02*
X102717619Y-93036800D01*
X102717619Y-93036800D02*
X102831904Y-93074895D01*
X102831904Y-93074895D02*
X102908095Y-93074895D01*
X102908095Y-93074895D02*
X103022381Y-93036800D01*
X103022381Y-93036800D02*
X103098571Y-92960609D01*
X103098571Y-92960609D02*
X103136666Y-92884419D01*
X103136666Y-92884419D02*
X103174762Y-92732038D01*
X103174762Y-92732038D02*
X103174762Y-92617752D01*
X103174762Y-92617752D02*
X103136666Y-92465371D01*
X103136666Y-92465371D02*
X103098571Y-92389180D01*
X103098571Y-92389180D02*
X103022381Y-92312990D01*
X103022381Y-92312990D02*
X102908095Y-92274895D01*
X102908095Y-92274895D02*
X102831904Y-92274895D01*
X102831904Y-92274895D02*
X102717619Y-92312990D01*
X102717619Y-92312990D02*
X102679523Y-92351085D01*
X101879523Y-92998704D02*
X101917619Y-93036800D01*
X101917619Y-93036800D02*
X102031904Y-93074895D01*
X102031904Y-93074895D02*
X102108095Y-93074895D01*
X102108095Y-93074895D02*
X102222381Y-93036800D01*
X102222381Y-93036800D02*
X102298571Y-92960609D01*
X102298571Y-92960609D02*
X102336666Y-92884419D01*
X102336666Y-92884419D02*
X102374762Y-92732038D01*
X102374762Y-92732038D02*
X102374762Y-92617752D01*
X102374762Y-92617752D02*
X102336666Y-92465371D01*
X102336666Y-92465371D02*
X102298571Y-92389180D01*
X102298571Y-92389180D02*
X102222381Y-92312990D01*
X102222381Y-92312990D02*
X102108095Y-92274895D01*
X102108095Y-92274895D02*
X102031904Y-92274895D01*
X102031904Y-92274895D02*
X101917619Y-92312990D01*
X101917619Y-92312990D02*
X101879523Y-92351085D01*
X103447714Y-97735847D02*
X103333428Y-97773942D01*
X103333428Y-97773942D02*
X103295333Y-97812038D01*
X103295333Y-97812038D02*
X103257237Y-97888228D01*
X103257237Y-97888228D02*
X103257237Y-98002514D01*
X103257237Y-98002514D02*
X103295333Y-98078704D01*
X103295333Y-98078704D02*
X103333428Y-98116800D01*
X103333428Y-98116800D02*
X103409618Y-98154895D01*
X103409618Y-98154895D02*
X103714380Y-98154895D01*
X103714380Y-98154895D02*
X103714380Y-97354895D01*
X103714380Y-97354895D02*
X103447714Y-97354895D01*
X103447714Y-97354895D02*
X103371523Y-97392990D01*
X103371523Y-97392990D02*
X103333428Y-97431085D01*
X103333428Y-97431085D02*
X103295333Y-97507276D01*
X103295333Y-97507276D02*
X103295333Y-97583466D01*
X103295333Y-97583466D02*
X103333428Y-97659657D01*
X103333428Y-97659657D02*
X103371523Y-97697752D01*
X103371523Y-97697752D02*
X103447714Y-97735847D01*
X103447714Y-97735847D02*
X103714380Y-97735847D01*
X102761999Y-97354895D02*
X102609618Y-97354895D01*
X102609618Y-97354895D02*
X102533428Y-97392990D01*
X102533428Y-97392990D02*
X102457237Y-97469180D01*
X102457237Y-97469180D02*
X102419142Y-97621561D01*
X102419142Y-97621561D02*
X102419142Y-97888228D01*
X102419142Y-97888228D02*
X102457237Y-98040609D01*
X102457237Y-98040609D02*
X102533428Y-98116800D01*
X102533428Y-98116800D02*
X102609618Y-98154895D01*
X102609618Y-98154895D02*
X102761999Y-98154895D01*
X102761999Y-98154895D02*
X102838190Y-98116800D01*
X102838190Y-98116800D02*
X102914380Y-98040609D01*
X102914380Y-98040609D02*
X102952476Y-97888228D01*
X102952476Y-97888228D02*
X102952476Y-97621561D01*
X102952476Y-97621561D02*
X102914380Y-97469180D01*
X102914380Y-97469180D02*
X102838190Y-97392990D01*
X102838190Y-97392990D02*
X102761999Y-97354895D01*
X101923904Y-97354895D02*
X101771523Y-97354895D01*
X101771523Y-97354895D02*
X101695333Y-97392990D01*
X101695333Y-97392990D02*
X101619142Y-97469180D01*
X101619142Y-97469180D02*
X101581047Y-97621561D01*
X101581047Y-97621561D02*
X101581047Y-97888228D01*
X101581047Y-97888228D02*
X101619142Y-98040609D01*
X101619142Y-98040609D02*
X101695333Y-98116800D01*
X101695333Y-98116800D02*
X101771523Y-98154895D01*
X101771523Y-98154895D02*
X101923904Y-98154895D01*
X101923904Y-98154895D02*
X102000095Y-98116800D01*
X102000095Y-98116800D02*
X102076285Y-98040609D01*
X102076285Y-98040609D02*
X102114381Y-97888228D01*
X102114381Y-97888228D02*
X102114381Y-97621561D01*
X102114381Y-97621561D02*
X102076285Y-97469180D01*
X102076285Y-97469180D02*
X102000095Y-97392990D01*
X102000095Y-97392990D02*
X101923904Y-97354895D01*
X101352476Y-97354895D02*
X100895333Y-97354895D01*
X101123905Y-98154895D02*
X101123905Y-97354895D01*
X103479523Y-94852990D02*
X103555713Y-94814895D01*
X103555713Y-94814895D02*
X103669999Y-94814895D01*
X103669999Y-94814895D02*
X103784285Y-94852990D01*
X103784285Y-94852990D02*
X103860475Y-94929180D01*
X103860475Y-94929180D02*
X103898570Y-95005371D01*
X103898570Y-95005371D02*
X103936666Y-95157752D01*
X103936666Y-95157752D02*
X103936666Y-95272038D01*
X103936666Y-95272038D02*
X103898570Y-95424419D01*
X103898570Y-95424419D02*
X103860475Y-95500609D01*
X103860475Y-95500609D02*
X103784285Y-95576800D01*
X103784285Y-95576800D02*
X103669999Y-95614895D01*
X103669999Y-95614895D02*
X103593808Y-95614895D01*
X103593808Y-95614895D02*
X103479523Y-95576800D01*
X103479523Y-95576800D02*
X103441427Y-95538704D01*
X103441427Y-95538704D02*
X103441427Y-95272038D01*
X103441427Y-95272038D02*
X103593808Y-95272038D01*
X103098570Y-95614895D02*
X103098570Y-94814895D01*
X103098570Y-94814895D02*
X102641427Y-95614895D01*
X102641427Y-95614895D02*
X102641427Y-94814895D01*
X102260475Y-95614895D02*
X102260475Y-94814895D01*
X102260475Y-94814895D02*
X102069999Y-94814895D01*
X102069999Y-94814895D02*
X101955713Y-94852990D01*
X101955713Y-94852990D02*
X101879523Y-94929180D01*
X101879523Y-94929180D02*
X101841428Y-95005371D01*
X101841428Y-95005371D02*
X101803332Y-95157752D01*
X101803332Y-95157752D02*
X101803332Y-95272038D01*
X101803332Y-95272038D02*
X101841428Y-95424419D01*
X101841428Y-95424419D02*
X101879523Y-95500609D01*
X101879523Y-95500609D02*
X101955713Y-95576800D01*
X101955713Y-95576800D02*
X102069999Y-95614895D01*
X102069999Y-95614895D02*
X102260475Y-95614895D01*
X110115332Y-98154895D02*
X110381999Y-97773942D01*
X110572475Y-98154895D02*
X110572475Y-97354895D01*
X110572475Y-97354895D02*
X110267713Y-97354895D01*
X110267713Y-97354895D02*
X110191523Y-97392990D01*
X110191523Y-97392990D02*
X110153428Y-97431085D01*
X110153428Y-97431085D02*
X110115332Y-97507276D01*
X110115332Y-97507276D02*
X110115332Y-97621561D01*
X110115332Y-97621561D02*
X110153428Y-97697752D01*
X110153428Y-97697752D02*
X110191523Y-97735847D01*
X110191523Y-97735847D02*
X110267713Y-97773942D01*
X110267713Y-97773942D02*
X110572475Y-97773942D01*
X109848666Y-97354895D02*
X109315332Y-98154895D01*
X109315332Y-97354895D02*
X109848666Y-98154895D01*
D13*
X111614809Y-99604770D02*
X111662428Y-99747627D01*
X111662428Y-99747627D02*
X111710047Y-99795246D01*
X111710047Y-99795246D02*
X111805285Y-99842865D01*
X111805285Y-99842865D02*
X111948142Y-99842865D01*
X111948142Y-99842865D02*
X112043380Y-99795246D01*
X112043380Y-99795246D02*
X112091000Y-99747627D01*
X112091000Y-99747627D02*
X112138619Y-99652389D01*
X112138619Y-99652389D02*
X112138619Y-99271437D01*
X112138619Y-99271437D02*
X111138619Y-99271437D01*
X111138619Y-99271437D02*
X111138619Y-99604770D01*
X111138619Y-99604770D02*
X111186238Y-99700008D01*
X111186238Y-99700008D02*
X111233857Y-99747627D01*
X111233857Y-99747627D02*
X111329095Y-99795246D01*
X111329095Y-99795246D02*
X111424333Y-99795246D01*
X111424333Y-99795246D02*
X111519571Y-99747627D01*
X111519571Y-99747627D02*
X111567190Y-99700008D01*
X111567190Y-99700008D02*
X111614809Y-99604770D01*
X111614809Y-99604770D02*
X111614809Y-99271437D01*
X112138619Y-100700008D02*
X111614809Y-100700008D01*
X111614809Y-100700008D02*
X111519571Y-100652389D01*
X111519571Y-100652389D02*
X111471952Y-100557151D01*
X111471952Y-100557151D02*
X111471952Y-100366675D01*
X111471952Y-100366675D02*
X111519571Y-100271437D01*
X112091000Y-100700008D02*
X112138619Y-100604770D01*
X112138619Y-100604770D02*
X112138619Y-100366675D01*
X112138619Y-100366675D02*
X112091000Y-100271437D01*
X112091000Y-100271437D02*
X111995761Y-100223818D01*
X111995761Y-100223818D02*
X111900523Y-100223818D01*
X111900523Y-100223818D02*
X111805285Y-100271437D01*
X111805285Y-100271437D02*
X111757666Y-100366675D01*
X111757666Y-100366675D02*
X111757666Y-100604770D01*
X111757666Y-100604770D02*
X111710047Y-100700008D01*
X111471952Y-101033342D02*
X111471952Y-101414294D01*
X111138619Y-101176199D02*
X111995761Y-101176199D01*
X111995761Y-101176199D02*
X112091000Y-101223818D01*
X112091000Y-101223818D02*
X112138619Y-101319056D01*
X112138619Y-101319056D02*
X112138619Y-101414294D01*
X111471952Y-101604771D02*
X111471952Y-101985723D01*
X111138619Y-101747628D02*
X111995761Y-101747628D01*
X111995761Y-101747628D02*
X112091000Y-101795247D01*
X112091000Y-101795247D02*
X112138619Y-101890485D01*
X112138619Y-101890485D02*
X112138619Y-101985723D01*
X112091000Y-102700009D02*
X112138619Y-102604771D01*
X112138619Y-102604771D02*
X112138619Y-102414295D01*
X112138619Y-102414295D02*
X112091000Y-102319057D01*
X112091000Y-102319057D02*
X111995761Y-102271438D01*
X111995761Y-102271438D02*
X111614809Y-102271438D01*
X111614809Y-102271438D02*
X111519571Y-102319057D01*
X111519571Y-102319057D02*
X111471952Y-102414295D01*
X111471952Y-102414295D02*
X111471952Y-102604771D01*
X111471952Y-102604771D02*
X111519571Y-102700009D01*
X111519571Y-102700009D02*
X111614809Y-102747628D01*
X111614809Y-102747628D02*
X111710047Y-102747628D01*
X111710047Y-102747628D02*
X111805285Y-102271438D01*
X112138619Y-103176200D02*
X111471952Y-103176200D01*
X111662428Y-103176200D02*
X111567190Y-103223819D01*
X111567190Y-103223819D02*
X111519571Y-103271438D01*
X111519571Y-103271438D02*
X111471952Y-103366676D01*
X111471952Y-103366676D02*
X111471952Y-103461914D01*
X111471952Y-103700010D02*
X112138619Y-103938105D01*
X111471952Y-104176200D02*
X112138619Y-103938105D01*
X112138619Y-103938105D02*
X112376714Y-103842867D01*
X112376714Y-103842867D02*
X112424333Y-103795248D01*
X112424333Y-103795248D02*
X112471952Y-103700010D01*
D12*
X110591523Y-94814895D02*
X110134380Y-94814895D01*
X110362952Y-95614895D02*
X110362952Y-94814895D01*
X109943904Y-94814895D02*
X109410570Y-95614895D01*
X109410570Y-94814895D02*
X109943904Y-95614895D01*
D14*
%TO.C,TP1*%
X108650000Y-92710000D02*
G75*
G02*
X107250000Y-92710000I-700000J0D01*
G01*
X107250000Y-92710000D02*
G75*
G02*
X108650000Y-92710000I700000J0D01*
G01*
%TO.C,TP2*%
X106110000Y-92710000D02*
G75*
G02*
X104710000Y-92710000I-700000J0D01*
G01*
X104710000Y-92710000D02*
G75*
G02*
X106110000Y-92710000I700000J0D01*
G01*
%TO.C,TP6*%
X106110000Y-97790000D02*
G75*
G02*
X104710000Y-97790000I-700000J0D01*
G01*
X104710000Y-97790000D02*
G75*
G02*
X106110000Y-97790000I700000J0D01*
G01*
%TO.C,TP4*%
X106110000Y-95250000D02*
G75*
G02*
X104710000Y-95250000I-700000J0D01*
G01*
X104710000Y-95250000D02*
G75*
G02*
X106110000Y-95250000I700000J0D01*
G01*
%TO.C,TP5*%
X108650000Y-97790000D02*
G75*
G02*
X107250000Y-97790000I-700000J0D01*
G01*
X107250000Y-97790000D02*
G75*
G02*
X108650000Y-97790000I700000J0D01*
G01*
%TO.C,TP7*%
X86298000Y-95250000D02*
G75*
G02*
X84898000Y-95250000I-700000J0D01*
G01*
X84898000Y-95250000D02*
G75*
G02*
X86298000Y-95250000I700000J0D01*
G01*
%TO.C,J3*%
X113147000Y-98556000D02*
X120967000Y-98556000D01*
X113147000Y-102116000D02*
X117507000Y-102116000D01*
X113147000Y-104676000D02*
X113147000Y-98556000D01*
X115407000Y-99316000D02*
X115407000Y-100316000D01*
X115407000Y-100316000D02*
X117007000Y-100316000D01*
X115407000Y-102916000D02*
X113147000Y-102916000D01*
X115407000Y-102916000D02*
X117007000Y-102916000D01*
X115407000Y-103416000D02*
X113147000Y-103416000D01*
X115407000Y-103916000D02*
X115407000Y-102916000D01*
X117007000Y-99316000D02*
X115407000Y-99316000D01*
X117007000Y-100316000D02*
X117007000Y-99316000D01*
X117007000Y-102916000D02*
X117007000Y-103916000D01*
X117007000Y-103916000D02*
X115407000Y-103916000D01*
X117507000Y-101116000D02*
X113147000Y-101116000D01*
X117507000Y-102116000D02*
X117507000Y-101116000D01*
X119367000Y-98556000D02*
X119367000Y-99476000D01*
X119367000Y-99476000D02*
X119367000Y-99756000D01*
X119367000Y-103476000D02*
X119367000Y-103756000D01*
X119367000Y-103476000D02*
X120582000Y-103476000D01*
X119367000Y-103756000D02*
X120967000Y-103756000D01*
X119367000Y-104676000D02*
X119367000Y-103756000D01*
X120967000Y-98556000D02*
X120967000Y-99476000D01*
X120967000Y-99476000D02*
X119367000Y-99476000D01*
X120967000Y-103756000D02*
X120967000Y-104676000D01*
X120967000Y-104676000D02*
X113147000Y-104676000D01*
%TO.C,TP3*%
X108650000Y-95250000D02*
G75*
G02*
X107250000Y-95250000I-700000J0D01*
G01*
X107250000Y-95250000D02*
G75*
G02*
X108650000Y-95250000I700000J0D01*
G01*
%TO.C,TP8*%
X86298000Y-92710000D02*
G75*
G02*
X84898000Y-92710000I-700000J0D01*
G01*
X84898000Y-92710000D02*
G75*
G02*
X86298000Y-92710000I700000J0D01*
G01*
%TD*%
%LPC*%
D15*
%TO.C,J1*%
X98706000Y-116254000D03*
X104486000Y-116254000D03*
D16*
X97276000Y-115754000D03*
D17*
X97276000Y-119934000D03*
D16*
X105916000Y-115754000D03*
D17*
X105916000Y-119934000D03*
%TD*%
D18*
%TO.C,TP1*%
X107950000Y-92710000D03*
%TD*%
%TO.C,TP2*%
X105410000Y-92710000D03*
%TD*%
%TO.C,TP6*%
X105410000Y-97790000D03*
%TD*%
%TO.C,TP4*%
X105410000Y-95250000D03*
%TD*%
%TO.C,TP5*%
X107950000Y-97790000D03*
%TD*%
%TO.C,TP7*%
X85598000Y-95250000D03*
%TD*%
D19*
%TO.C,J3*%
X119507000Y-102616000D03*
D20*
X119507000Y-100616000D03*
%TD*%
D18*
%TO.C,TP3*%
X107950000Y-95250000D03*
%TD*%
%TO.C,TP8*%
X85598000Y-92710000D03*
%TD*%
%LPD*%
M02*
