%TF.GenerationSoftware,KiCad,Pcbnew,9.0.6*%
%TF.CreationDate,2026-01-06T14:18:23+01:00*%
%TF.ProjectId,EnviroLind,456e7669-726f-44c6-996e-642e6b696361,rev?*%
%TF.SameCoordinates,Original*%
%TF.FileFunction,Legend,Top*%
%TF.FilePolarity,Positive*%
%FSLAX46Y46*%
G04 Gerber Fmt 4.6, Leading zero omitted, Abs format (unit mm)*
G04 Created by KiCad (PCBNEW 9.0.6) date 2026-01-06 14:18:23*
%MOMM*%
%LPD*%
G01*
G04 APERTURE LIST*
G04 Aperture macros list*
%AMRoundRect*
0 Rectangle with rounded corners*
0 $1 Rounding radius*
0 $2 $3 $4 $5 $6 $7 $8 $9 X,Y pos of 4 corners*
0 Add a 4 corners polygon primitive as box body*
4,1,4,$2,$3,$4,$5,$6,$7,$8,$9,$2,$3,0*
0 Add four circle primitives for the rounded corners*
1,1,$1+$1,$2,$3*
1,1,$1+$1,$4,$5*
1,1,$1+$1,$6,$7*
1,1,$1+$1,$8,$9*
0 Add four rect primitives between the rounded corners*
20,1,$1+$1,$2,$3,$4,$5,0*
20,1,$1+$1,$4,$5,$6,$7,0*
20,1,$1+$1,$6,$7,$8,$9,0*
20,1,$1+$1,$8,$9,$2,$3,0*%
%AMRotRect*
0 Rectangle, with rotation*
0 The origin of the aperture is its center*
0 $1 length*
0 $2 width*
0 $3 Rotation angle, in degrees counterclockwise*
0 Add horizontal line*
21,1,$1,$2,0,0,$3*%
G04 Aperture macros list end*
%ADD10C,0.100000*%
%ADD11C,0.150000*%
%ADD12C,0.120000*%
%ADD13RoundRect,0.135000X-0.135000X-0.185000X0.135000X-0.185000X0.135000X0.185000X-0.135000X0.185000X0*%
%ADD14RoundRect,0.243750X0.456250X-0.243750X0.456250X0.243750X-0.456250X0.243750X-0.456250X-0.243750X0*%
%ADD15RoundRect,0.140000X0.140000X0.170000X-0.140000X0.170000X-0.140000X-0.170000X0.140000X-0.170000X0*%
%ADD16RoundRect,0.135000X0.185000X-0.135000X0.185000X0.135000X-0.185000X0.135000X-0.185000X-0.135000X0*%
%ADD17RoundRect,0.225000X0.225000X0.250000X-0.225000X0.250000X-0.225000X-0.250000X0.225000X-0.250000X0*%
%ADD18RotRect,1.550000X1.000000X315.000000*%
%ADD19RoundRect,0.140000X0.170000X-0.140000X0.170000X0.140000X-0.170000X0.140000X-0.170000X-0.140000X0*%
%ADD20R,0.500000X0.350000*%
%ADD21R,1.200000X0.600000*%
%ADD22RoundRect,0.140000X-0.170000X0.140000X-0.170000X-0.140000X0.170000X-0.140000X0.170000X0.140000X0*%
%ADD23RoundRect,0.135000X0.135000X0.185000X-0.135000X0.185000X-0.135000X-0.185000X0.135000X-0.185000X0*%
%ADD24RoundRect,0.150000X0.150000X0.200000X-0.150000X0.200000X-0.150000X-0.200000X0.150000X-0.200000X0*%
%ADD25RoundRect,0.093750X-0.156250X-0.093750X0.156250X-0.093750X0.156250X0.093750X-0.156250X0.093750X0*%
%ADD26RoundRect,0.075000X-0.250000X-0.075000X0.250000X-0.075000X0.250000X0.075000X-0.250000X0.075000X0*%
%ADD27RoundRect,0.150000X0.200000X-0.150000X0.200000X0.150000X-0.200000X0.150000X-0.200000X-0.150000X0*%
%ADD28RoundRect,0.225000X-0.335876X-0.017678X-0.017678X-0.335876X0.335876X0.017678X0.017678X0.335876X0*%
%ADD29R,1.500000X0.900000*%
%ADD30R,0.800000X0.800000*%
%ADD31RoundRect,0.150000X0.512500X0.150000X-0.512500X0.150000X-0.512500X-0.150000X0.512500X-0.150000X0*%
%ADD32RoundRect,0.062500X-0.127279X0.038891X0.038891X-0.127279X0.127279X-0.038891X-0.038891X0.127279X0*%
%ADD33RoundRect,0.147500X0.147500X0.172500X-0.147500X0.172500X-0.147500X-0.172500X0.147500X-0.172500X0*%
%ADD34RoundRect,0.150000X-0.150000X0.587500X-0.150000X-0.587500X0.150000X-0.587500X0.150000X0.587500X0*%
%ADD35R,1.800000X1.000000*%
%ADD36RoundRect,0.225000X-0.225000X-0.250000X0.225000X-0.250000X0.225000X0.250000X-0.225000X0.250000X0*%
%ADD37RotRect,1.550000X1.000000X45.000000*%
%ADD38RoundRect,0.150000X-0.150000X0.512500X-0.150000X-0.512500X0.150000X-0.512500X0.150000X0.512500X0*%
%ADD39RoundRect,0.150000X-0.625000X0.150000X-0.625000X-0.150000X0.625000X-0.150000X0.625000X0.150000X0*%
%ADD40RoundRect,0.250000X-0.650000X0.350000X-0.650000X-0.350000X0.650000X-0.350000X0.650000X0.350000X0*%
%ADD41RoundRect,0.147500X-0.147500X-0.172500X0.147500X-0.172500X0.147500X0.172500X-0.147500X0.172500X0*%
%ADD42RoundRect,0.135000X-0.035355X0.226274X-0.226274X0.035355X0.035355X-0.226274X0.226274X-0.035355X0*%
%ADD43RoundRect,0.075000X-0.075000X0.250000X-0.075000X-0.250000X0.075000X-0.250000X0.075000X0.250000X0*%
%ADD44RoundRect,0.062500X0.038891X0.127279X-0.127279X-0.038891X-0.038891X-0.127279X0.127279X0.038891X0*%
%ADD45RoundRect,0.135000X-0.185000X0.135000X-0.185000X-0.135000X0.185000X-0.135000X0.185000X0.135000X0*%
%ADD46RoundRect,0.225000X0.250000X-0.225000X0.250000X0.225000X-0.250000X0.225000X-0.250000X-0.225000X0*%
%ADD47C,0.650000*%
%ADD48R,0.300000X1.150000*%
%ADD49O,1.000000X2.100000*%
%ADD50O,1.000000X1.600000*%
%ADD51RoundRect,0.062500X0.117500X0.062500X-0.117500X0.062500X-0.117500X-0.062500X0.117500X-0.062500X0*%
%ADD52RoundRect,0.070000X-0.280000X0.280000X-0.280000X-0.280000X0.280000X-0.280000X0.280000X0.280000X0*%
%ADD53RoundRect,0.140000X-0.021213X0.219203X-0.219203X0.021213X0.021213X-0.219203X0.219203X-0.021213X0*%
%ADD54RoundRect,0.250000X0.625000X-0.350000X0.625000X0.350000X-0.625000X0.350000X-0.625000X-0.350000X0*%
%ADD55O,1.750000X1.200000*%
G04 APERTURE END LIST*
D10*
X91193543Y-112269812D02*
X90735607Y-112727748D01*
X90735607Y-112727748D02*
X90708670Y-112808560D01*
X90708670Y-112808560D02*
X90708670Y-112862435D01*
X90708670Y-112862435D02*
X90735607Y-112943247D01*
X90735607Y-112943247D02*
X90843357Y-113050997D01*
X90843357Y-113050997D02*
X90924169Y-113077934D01*
X90924169Y-113077934D02*
X90978044Y-113077934D01*
X90978044Y-113077934D02*
X91058856Y-113050997D01*
X91058856Y-113050997D02*
X91516792Y-112593061D01*
X91220480Y-113374245D02*
X91247418Y-113455058D01*
X91247418Y-113455058D02*
X91355167Y-113562807D01*
X91355167Y-113562807D02*
X91435980Y-113589745D01*
X91435980Y-113589745D02*
X91516792Y-113562807D01*
X91516792Y-113562807D02*
X91543729Y-113535870D01*
X91543729Y-113535870D02*
X91570667Y-113455058D01*
X91570667Y-113455058D02*
X91543729Y-113374245D01*
X91543729Y-113374245D02*
X91462917Y-113293433D01*
X91462917Y-113293433D02*
X91435980Y-113212621D01*
X91435980Y-113212621D02*
X91462917Y-113131809D01*
X91462917Y-113131809D02*
X91489854Y-113104871D01*
X91489854Y-113104871D02*
X91570667Y-113077934D01*
X91570667Y-113077934D02*
X91651479Y-113104871D01*
X91651479Y-113104871D02*
X91732291Y-113185684D01*
X91732291Y-113185684D02*
X91759228Y-113266496D01*
X91920853Y-114074618D02*
X91840041Y-114047680D01*
X91840041Y-114047680D02*
X91732291Y-113939931D01*
X91732291Y-113939931D02*
X91705354Y-113859119D01*
X91705354Y-113859119D02*
X91732291Y-113778306D01*
X91732291Y-113778306D02*
X91947790Y-113562807D01*
X91947790Y-113562807D02*
X92028602Y-113535870D01*
X92028602Y-113535870D02*
X92109415Y-113562807D01*
X92109415Y-113562807D02*
X92217164Y-113670557D01*
X92217164Y-113670557D02*
X92244102Y-113751369D01*
X92244102Y-113751369D02*
X92217164Y-113832181D01*
X92217164Y-113832181D02*
X92163289Y-113886056D01*
X92163289Y-113886056D02*
X91840041Y-113670557D01*
X92163289Y-114370929D02*
X92540413Y-113993805D01*
X92432663Y-114101555D02*
X92513475Y-114074618D01*
X92513475Y-114074618D02*
X92567350Y-114074618D01*
X92567350Y-114074618D02*
X92648162Y-114101555D01*
X92648162Y-114101555D02*
X92702037Y-114155430D01*
D11*
X100838095Y-82333819D02*
X100838095Y-83143342D01*
X100838095Y-83143342D02*
X100885714Y-83238580D01*
X100885714Y-83238580D02*
X100933333Y-83286200D01*
X100933333Y-83286200D02*
X101028571Y-83333819D01*
X101028571Y-83333819D02*
X101219047Y-83333819D01*
X101219047Y-83333819D02*
X101314285Y-83286200D01*
X101314285Y-83286200D02*
X101361904Y-83238580D01*
X101361904Y-83238580D02*
X101409523Y-83143342D01*
X101409523Y-83143342D02*
X101409523Y-82333819D01*
X102028571Y-82762390D02*
X101933333Y-82714771D01*
X101933333Y-82714771D02*
X101885714Y-82667152D01*
X101885714Y-82667152D02*
X101838095Y-82571914D01*
X101838095Y-82571914D02*
X101838095Y-82524295D01*
X101838095Y-82524295D02*
X101885714Y-82429057D01*
X101885714Y-82429057D02*
X101933333Y-82381438D01*
X101933333Y-82381438D02*
X102028571Y-82333819D01*
X102028571Y-82333819D02*
X102219047Y-82333819D01*
X102219047Y-82333819D02*
X102314285Y-82381438D01*
X102314285Y-82381438D02*
X102361904Y-82429057D01*
X102361904Y-82429057D02*
X102409523Y-82524295D01*
X102409523Y-82524295D02*
X102409523Y-82571914D01*
X102409523Y-82571914D02*
X102361904Y-82667152D01*
X102361904Y-82667152D02*
X102314285Y-82714771D01*
X102314285Y-82714771D02*
X102219047Y-82762390D01*
X102219047Y-82762390D02*
X102028571Y-82762390D01*
X102028571Y-82762390D02*
X101933333Y-82810009D01*
X101933333Y-82810009D02*
X101885714Y-82857628D01*
X101885714Y-82857628D02*
X101838095Y-82952866D01*
X101838095Y-82952866D02*
X101838095Y-83143342D01*
X101838095Y-83143342D02*
X101885714Y-83238580D01*
X101885714Y-83238580D02*
X101933333Y-83286200D01*
X101933333Y-83286200D02*
X102028571Y-83333819D01*
X102028571Y-83333819D02*
X102219047Y-83333819D01*
X102219047Y-83333819D02*
X102314285Y-83286200D01*
X102314285Y-83286200D02*
X102361904Y-83238580D01*
X102361904Y-83238580D02*
X102409523Y-83143342D01*
X102409523Y-83143342D02*
X102409523Y-82952866D01*
X102409523Y-82952866D02*
X102361904Y-82857628D01*
X102361904Y-82857628D02*
X102314285Y-82810009D01*
X102314285Y-82810009D02*
X102219047Y-82762390D01*
X96838094Y-87348104D02*
X97314284Y-87348104D01*
X96742856Y-87633819D02*
X97076189Y-86633819D01*
X97076189Y-86633819D02*
X97409522Y-87633819D01*
X97742856Y-86967152D02*
X97742856Y-87633819D01*
X97742856Y-87062390D02*
X97790475Y-87014771D01*
X97790475Y-87014771D02*
X97885713Y-86967152D01*
X97885713Y-86967152D02*
X98028570Y-86967152D01*
X98028570Y-86967152D02*
X98123808Y-87014771D01*
X98123808Y-87014771D02*
X98171427Y-87110009D01*
X98171427Y-87110009D02*
X98171427Y-87633819D01*
X98504761Y-86967152D02*
X98885713Y-86967152D01*
X98647618Y-86633819D02*
X98647618Y-87490961D01*
X98647618Y-87490961D02*
X98695237Y-87586200D01*
X98695237Y-87586200D02*
X98790475Y-87633819D01*
X98790475Y-87633819D02*
X98885713Y-87633819D01*
X99599999Y-87586200D02*
X99504761Y-87633819D01*
X99504761Y-87633819D02*
X99314285Y-87633819D01*
X99314285Y-87633819D02*
X99219047Y-87586200D01*
X99219047Y-87586200D02*
X99171428Y-87490961D01*
X99171428Y-87490961D02*
X99171428Y-87110009D01*
X99171428Y-87110009D02*
X99219047Y-87014771D01*
X99219047Y-87014771D02*
X99314285Y-86967152D01*
X99314285Y-86967152D02*
X99504761Y-86967152D01*
X99504761Y-86967152D02*
X99599999Y-87014771D01*
X99599999Y-87014771D02*
X99647618Y-87110009D01*
X99647618Y-87110009D02*
X99647618Y-87205247D01*
X99647618Y-87205247D02*
X99171428Y-87300485D01*
X100076190Y-86967152D02*
X100076190Y-87633819D01*
X100076190Y-87062390D02*
X100123809Y-87014771D01*
X100123809Y-87014771D02*
X100219047Y-86967152D01*
X100219047Y-86967152D02*
X100361904Y-86967152D01*
X100361904Y-86967152D02*
X100457142Y-87014771D01*
X100457142Y-87014771D02*
X100504761Y-87110009D01*
X100504761Y-87110009D02*
X100504761Y-87633819D01*
X100980952Y-86967152D02*
X100980952Y-87633819D01*
X100980952Y-87062390D02*
X101028571Y-87014771D01*
X101028571Y-87014771D02*
X101123809Y-86967152D01*
X101123809Y-86967152D02*
X101266666Y-86967152D01*
X101266666Y-86967152D02*
X101361904Y-87014771D01*
X101361904Y-87014771D02*
X101409523Y-87110009D01*
X101409523Y-87110009D02*
X101409523Y-87633819D01*
X102314285Y-87633819D02*
X102314285Y-87110009D01*
X102314285Y-87110009D02*
X102266666Y-87014771D01*
X102266666Y-87014771D02*
X102171428Y-86967152D01*
X102171428Y-86967152D02*
X101980952Y-86967152D01*
X101980952Y-86967152D02*
X101885714Y-87014771D01*
X102314285Y-87586200D02*
X102219047Y-87633819D01*
X102219047Y-87633819D02*
X101980952Y-87633819D01*
X101980952Y-87633819D02*
X101885714Y-87586200D01*
X101885714Y-87586200D02*
X101838095Y-87490961D01*
X101838095Y-87490961D02*
X101838095Y-87395723D01*
X101838095Y-87395723D02*
X101885714Y-87300485D01*
X101885714Y-87300485D02*
X101980952Y-87252866D01*
X101980952Y-87252866D02*
X102219047Y-87252866D01*
X102219047Y-87252866D02*
X102314285Y-87205247D01*
X103504762Y-87348104D02*
X103980952Y-87348104D01*
X103409524Y-87633819D02*
X103742857Y-86633819D01*
X103742857Y-86633819D02*
X104076190Y-87633819D01*
X104409524Y-87633819D02*
X104409524Y-86967152D01*
X104409524Y-87157628D02*
X104457143Y-87062390D01*
X104457143Y-87062390D02*
X104504762Y-87014771D01*
X104504762Y-87014771D02*
X104600000Y-86967152D01*
X104600000Y-86967152D02*
X104695238Y-86967152D01*
X105409524Y-87586200D02*
X105314286Y-87633819D01*
X105314286Y-87633819D02*
X105123810Y-87633819D01*
X105123810Y-87633819D02*
X105028572Y-87586200D01*
X105028572Y-87586200D02*
X104980953Y-87490961D01*
X104980953Y-87490961D02*
X104980953Y-87110009D01*
X104980953Y-87110009D02*
X105028572Y-87014771D01*
X105028572Y-87014771D02*
X105123810Y-86967152D01*
X105123810Y-86967152D02*
X105314286Y-86967152D01*
X105314286Y-86967152D02*
X105409524Y-87014771D01*
X105409524Y-87014771D02*
X105457143Y-87110009D01*
X105457143Y-87110009D02*
X105457143Y-87205247D01*
X105457143Y-87205247D02*
X104980953Y-87300485D01*
X106314286Y-87633819D02*
X106314286Y-87110009D01*
X106314286Y-87110009D02*
X106266667Y-87014771D01*
X106266667Y-87014771D02*
X106171429Y-86967152D01*
X106171429Y-86967152D02*
X105980953Y-86967152D01*
X105980953Y-86967152D02*
X105885715Y-87014771D01*
X106314286Y-87586200D02*
X106219048Y-87633819D01*
X106219048Y-87633819D02*
X105980953Y-87633819D01*
X105980953Y-87633819D02*
X105885715Y-87586200D01*
X105885715Y-87586200D02*
X105838096Y-87490961D01*
X105838096Y-87490961D02*
X105838096Y-87395723D01*
X105838096Y-87395723D02*
X105885715Y-87300485D01*
X105885715Y-87300485D02*
X105980953Y-87252866D01*
X105980953Y-87252866D02*
X106219048Y-87252866D01*
X106219048Y-87252866D02*
X106314286Y-87205247D01*
D10*
X111723679Y-112989737D02*
X111831429Y-112935862D01*
X111831429Y-112935862D02*
X111885303Y-112935862D01*
X111885303Y-112935862D02*
X111966116Y-112962800D01*
X111966116Y-112962800D02*
X112046928Y-113043612D01*
X112046928Y-113043612D02*
X112073865Y-113124424D01*
X112073865Y-113124424D02*
X112073865Y-113178299D01*
X112073865Y-113178299D02*
X112046928Y-113259111D01*
X112046928Y-113259111D02*
X111831429Y-113474610D01*
X111831429Y-113474610D02*
X111265743Y-112908925D01*
X111265743Y-112908925D02*
X111454305Y-112720363D01*
X111454305Y-112720363D02*
X111535117Y-112693426D01*
X111535117Y-112693426D02*
X111588992Y-112693426D01*
X111588992Y-112693426D02*
X111669804Y-112720363D01*
X111669804Y-112720363D02*
X111723679Y-112774238D01*
X111723679Y-112774238D02*
X111750616Y-112855050D01*
X111750616Y-112855050D02*
X111750616Y-112908925D01*
X111750616Y-112908925D02*
X111723679Y-112989737D01*
X111723679Y-112989737D02*
X111535117Y-113178299D01*
X112477926Y-112828113D02*
X112397114Y-112855050D01*
X112397114Y-112855050D02*
X112343239Y-112855050D01*
X112343239Y-112855050D02*
X112262427Y-112828113D01*
X112262427Y-112828113D02*
X112100803Y-112666488D01*
X112100803Y-112666488D02*
X112073865Y-112585676D01*
X112073865Y-112585676D02*
X112073865Y-112531801D01*
X112073865Y-112531801D02*
X112100803Y-112450989D01*
X112100803Y-112450989D02*
X112181615Y-112370177D01*
X112181615Y-112370177D02*
X112262427Y-112343239D01*
X112262427Y-112343239D02*
X112316302Y-112343239D01*
X112316302Y-112343239D02*
X112397114Y-112370177D01*
X112397114Y-112370177D02*
X112558738Y-112531801D01*
X112558738Y-112531801D02*
X112585676Y-112612613D01*
X112585676Y-112612613D02*
X112585676Y-112666488D01*
X112585676Y-112666488D02*
X112558738Y-112747300D01*
X112558738Y-112747300D02*
X112477926Y-112828113D01*
X112989737Y-112316302D02*
X112908925Y-112343239D01*
X112908925Y-112343239D02*
X112855050Y-112343239D01*
X112855050Y-112343239D02*
X112774238Y-112316302D01*
X112774238Y-112316302D02*
X112612614Y-112154677D01*
X112612614Y-112154677D02*
X112585676Y-112073865D01*
X112585676Y-112073865D02*
X112585676Y-112019990D01*
X112585676Y-112019990D02*
X112612614Y-111939178D01*
X112612614Y-111939178D02*
X112693426Y-111858366D01*
X112693426Y-111858366D02*
X112774238Y-111831428D01*
X112774238Y-111831428D02*
X112828113Y-111831428D01*
X112828113Y-111831428D02*
X112908925Y-111858366D01*
X112908925Y-111858366D02*
X113070549Y-112019990D01*
X113070549Y-112019990D02*
X113097487Y-112100802D01*
X113097487Y-112100802D02*
X113097487Y-112154677D01*
X113097487Y-112154677D02*
X113070549Y-112235489D01*
X113070549Y-112235489D02*
X112989737Y-112316302D01*
X112962800Y-111588991D02*
X113178299Y-111373492D01*
X112855051Y-111319617D02*
X113339924Y-111804491D01*
X113339924Y-111804491D02*
X113420736Y-111831428D01*
X113420736Y-111831428D02*
X113501548Y-111804491D01*
X113501548Y-111804491D02*
X113555423Y-111750616D01*
D12*
%TO.C,R12*%
X117018559Y-100762800D02*
X117325841Y-100762800D01*
X117018559Y-101522800D02*
X117325841Y-101522800D01*
%TO.C,FB1*%
X94540000Y-116336578D02*
X94540000Y-115819422D01*
X95960000Y-116336578D02*
X95960000Y-115819422D01*
%TO.C,C5*%
X88322036Y-92705600D02*
X88106364Y-92705600D01*
X88322036Y-93425600D02*
X88106364Y-93425600D01*
%TO.C,R2*%
X107058000Y-119559041D02*
X107058000Y-119251759D01*
X107818000Y-119559041D02*
X107818000Y-119251759D01*
%TO.C,C13*%
X119393580Y-104011000D02*
X119112420Y-104011000D01*
X119393580Y-105031000D02*
X119112420Y-105031000D01*
%TO.C,SW4*%
X86029705Y-113846894D02*
X86683778Y-114500967D01*
X87461596Y-112273581D02*
X87072687Y-112662490D01*
X88646000Y-111230599D02*
X91969401Y-114554000D01*
X88699033Y-116516222D02*
X89353106Y-117170295D01*
X90926419Y-115738404D02*
X90537510Y-116127313D01*
%TO.C,R5*%
X112523000Y-95070341D02*
X112523000Y-94763059D01*
X113283000Y-95070341D02*
X113283000Y-94763059D01*
%TO.C,C8*%
X115032200Y-98327036D02*
X115032200Y-98111364D01*
X115752200Y-98327036D02*
X115752200Y-98111364D01*
D10*
%TO.C,U5*%
X116029800Y-96379400D02*
X116029800Y-96529400D01*
X116039800Y-96379400D02*
X116189800Y-96379400D01*
X116039800Y-99079400D02*
X116039800Y-98929400D01*
X116039800Y-99079400D02*
X116189800Y-99079400D01*
X118739800Y-98929400D02*
X118739800Y-99079400D01*
X118739800Y-99079400D02*
X118589800Y-99079400D01*
D12*
X119099800Y-96379400D02*
X118739800Y-96379400D01*
X118739800Y-96019400D01*
X119099800Y-96379400D01*
G36*
X119099800Y-96379400D02*
G01*
X118739800Y-96379400D01*
X118739800Y-96019400D01*
X119099800Y-96379400D01*
G37*
%TO.C,C9*%
X90978400Y-102838364D02*
X90978400Y-103054036D01*
X91698400Y-102838364D02*
X91698400Y-103054036D01*
%TO.C,R10*%
X88342441Y-91745800D02*
X88035159Y-91745800D01*
X88342441Y-92505800D02*
X88035159Y-92505800D01*
%TO.C,D2*%
X92720000Y-117891000D02*
X92720000Y-119091000D01*
X94680000Y-117891000D02*
X92720000Y-117891000D01*
X94680000Y-119091000D02*
X92720000Y-119091000D01*
%TO.C,U2*%
X97297000Y-110643000D02*
X96247000Y-110643000D01*
X97297000Y-112623000D02*
X95997000Y-112623000D01*
X95877000Y-110643000D02*
X95597000Y-110643000D01*
X95877000Y-110363000D01*
X95877000Y-110643000D01*
G36*
X95877000Y-110643000D02*
G01*
X95597000Y-110643000D01*
X95877000Y-110363000D01*
X95877000Y-110643000D01*
G37*
%TO.C,C10*%
X115032200Y-96206364D02*
X115032200Y-96422036D01*
X115752200Y-96206364D02*
X115752200Y-96422036D01*
%TO.C,D9*%
X105445000Y-112841000D02*
X105445000Y-110881000D01*
X106645000Y-110881000D02*
X105445000Y-110881000D01*
X106645000Y-112841000D02*
X106645000Y-110881000D01*
%TO.C,C1*%
X89328970Y-110751219D02*
X89527781Y-110950030D01*
X90050219Y-110029970D02*
X90249030Y-110228781D01*
%TO.C,U8*%
X92600000Y-84179000D02*
X92600000Y-90929000D01*
X92600000Y-84179000D02*
X110600000Y-84179000D01*
X92600000Y-108929000D02*
X92600000Y-109679000D01*
X92600000Y-109679000D02*
X93600000Y-109679000D01*
X110600000Y-84179000D02*
X110600000Y-90929000D01*
X110600000Y-90179000D02*
X92600000Y-90179000D01*
X110600000Y-108929000D02*
X110600000Y-109679000D01*
X110600000Y-109679000D02*
X109600000Y-109679000D01*
%TO.C,U3*%
X87355000Y-105628000D02*
X89175000Y-105628000D01*
X87355000Y-105678000D02*
X87355000Y-105628000D01*
X87355000Y-107578000D02*
X87355000Y-106798000D01*
X87355000Y-108748000D02*
X87355000Y-108698000D01*
X89175000Y-105628000D02*
X89175000Y-105678000D01*
X89175000Y-108698000D02*
X89175000Y-108748000D01*
X89175000Y-108748000D02*
X87355000Y-108748000D01*
X89955000Y-109028000D02*
X89475000Y-109028000D01*
X89715000Y-108698000D01*
X89955000Y-109028000D01*
G36*
X89955000Y-109028000D02*
G01*
X89475000Y-109028000D01*
X89715000Y-108698000D01*
X89955000Y-109028000D01*
G37*
%TO.C,D5*%
X110234604Y-117023289D02*
X111196269Y-117984955D01*
X110800289Y-116457604D02*
X111761955Y-117419269D01*
X111196269Y-117984955D02*
X111761955Y-117419269D01*
D10*
%TO.C,D1*%
X91945000Y-91440000D02*
G75*
G02*
X91845000Y-91440000I-50000J0D01*
G01*
X91845000Y-91440000D02*
G75*
G02*
X91945000Y-91440000I50000J0D01*
G01*
D12*
%TO.C,Q1*%
X106898000Y-112016000D02*
X106948000Y-112016000D01*
X106898000Y-113536000D02*
X106898000Y-112016000D01*
X107898000Y-113536000D02*
X106898000Y-113536000D01*
X108068000Y-112016000D02*
X108848000Y-112016000D01*
X109968000Y-112016000D02*
X110018000Y-112016000D01*
X110018000Y-112016000D02*
X110018000Y-113536000D01*
X110018000Y-113536000D02*
X109018000Y-113536000D01*
X108838000Y-111476000D02*
X108508000Y-111716000D01*
X108508000Y-111236000D01*
X108838000Y-111476000D01*
G36*
X108838000Y-111476000D02*
G01*
X108508000Y-111716000D01*
X108508000Y-111236000D01*
X108838000Y-111476000D01*
G37*
%TO.C,R15*%
X110303000Y-112117141D02*
X110303000Y-111809859D01*
X111063000Y-112117141D02*
X111063000Y-111809859D01*
%TO.C,Y1*%
X88837800Y-102347400D02*
X88837800Y-103697400D01*
X90587800Y-102347400D02*
X90587800Y-103697400D01*
%TO.C,C4*%
X113297580Y-104894500D02*
X113016420Y-104894500D01*
X113297580Y-105914500D02*
X113016420Y-105914500D01*
%TO.C,R8*%
X89409000Y-98451641D02*
X89409000Y-98144359D01*
X90169000Y-98451641D02*
X90169000Y-98144359D01*
%TO.C,F1*%
X94601420Y-113028000D02*
X94882580Y-113028000D01*
X94601420Y-114048000D02*
X94882580Y-114048000D01*
%TO.C,SW3*%
X111230599Y-114554000D02*
X114554000Y-111230599D01*
X112273581Y-115738404D02*
X112662490Y-116127313D01*
X113846894Y-117170295D02*
X114500967Y-116516222D01*
X115738404Y-112273581D02*
X116127313Y-112662490D01*
X116516222Y-114500967D02*
X117170295Y-113846894D01*
%TO.C,U1*%
X115797500Y-105435000D02*
X117617500Y-105435000D01*
X115797500Y-105485000D02*
X115797500Y-105435000D01*
X115797500Y-107385000D02*
X115797500Y-106605000D01*
X115797500Y-108555000D02*
X115797500Y-108505000D01*
X117617500Y-105435000D02*
X117617500Y-105485000D01*
X117617500Y-108505000D02*
X117617500Y-108555000D01*
X117617500Y-108555000D02*
X115797500Y-108555000D01*
X118397500Y-108835000D02*
X117917500Y-108835000D01*
X118157500Y-108505000D01*
X118397500Y-108835000D01*
G36*
X118397500Y-108835000D02*
G01*
X117917500Y-108835000D01*
X118157500Y-108505000D01*
X118397500Y-108835000D01*
G37*
%TO.C,C6*%
X90912836Y-93137400D02*
X90697164Y-93137400D01*
X90912836Y-93857400D02*
X90697164Y-93857400D01*
%TO.C,R4*%
X111507000Y-95070341D02*
X111507000Y-94763059D01*
X112267000Y-95070341D02*
X112267000Y-94763059D01*
%TO.C,R11*%
X117014559Y-102947200D02*
X117321841Y-102947200D01*
X117014559Y-103707200D02*
X117321841Y-103707200D01*
%TO.C,U4*%
X111597000Y-101700500D02*
X111647000Y-101700500D01*
X111597000Y-103520500D02*
X111597000Y-101700500D01*
X111647000Y-103520500D02*
X111597000Y-103520500D01*
X113547000Y-103520500D02*
X112767000Y-103520500D01*
X114667000Y-101700500D02*
X114717000Y-101700500D01*
X114717000Y-101700500D02*
X114717000Y-103520500D01*
X114717000Y-103520500D02*
X114667000Y-103520500D01*
X114997000Y-101400500D02*
X114667000Y-101160500D01*
X114997000Y-100920500D01*
X114997000Y-101400500D01*
G36*
X114997000Y-101400500D02*
G01*
X114667000Y-101160500D01*
X114997000Y-100920500D01*
X114997000Y-101400500D01*
G37*
%TO.C,C7*%
X88286000Y-95484836D02*
X88286000Y-95269164D01*
X89006000Y-95484836D02*
X89006000Y-95269164D01*
%TO.C,J2*%
X82151000Y-99660000D02*
X82151000Y-103540000D01*
X84121000Y-98490000D02*
X86621000Y-98490000D01*
X84121000Y-104710000D02*
X86621000Y-104710000D01*
X86621000Y-98490000D02*
X86621000Y-99540000D01*
X86621000Y-99540000D02*
X87611000Y-99540000D01*
X86621000Y-104710000D02*
X86621000Y-103660000D01*
D10*
%TO.C,D8*%
X116134200Y-100203000D02*
G75*
G02*
X116034200Y-100203000I-50000J0D01*
G01*
X116034200Y-100203000D02*
G75*
G02*
X116134200Y-100203000I50000J0D01*
G01*
D12*
%TO.C,R6*%
X113539000Y-95070341D02*
X113539000Y-94763059D01*
X114299000Y-95070341D02*
X114299000Y-94763059D01*
%TO.C,R1*%
X95374000Y-119432041D02*
X95374000Y-119124759D01*
X96134000Y-119432041D02*
X96134000Y-119124759D01*
%TO.C,R14*%
X85802751Y-110662248D02*
X85585470Y-110879529D01*
X86340152Y-111199649D02*
X86122871Y-111416930D01*
%TO.C,R3*%
X90958641Y-92101400D02*
X90651359Y-92101400D01*
X90958641Y-92861400D02*
X90651359Y-92861400D01*
%TO.C,R7*%
X90679000Y-98451641D02*
X90679000Y-98144359D01*
X91439000Y-98451641D02*
X91439000Y-98144359D01*
%TO.C,U7*%
X89324000Y-94905000D02*
X89324000Y-96875000D01*
X91524000Y-95185000D02*
X91524000Y-96885000D01*
X91764000Y-94785000D02*
X91484000Y-94785000D01*
X91484000Y-94505000D01*
X91764000Y-94785000D01*
G36*
X91764000Y-94785000D02*
G01*
X91484000Y-94785000D01*
X91484000Y-94505000D01*
X91764000Y-94785000D01*
G37*
%TO.C,C11*%
X90978400Y-101225236D02*
X90978400Y-101009564D01*
X91698400Y-101225236D02*
X91698400Y-101009564D01*
%TO.C,D6*%
X91438045Y-117419269D02*
X92003731Y-117984955D01*
X92399711Y-116457604D02*
X91438045Y-117419269D01*
X92965396Y-117023289D02*
X92003731Y-117984955D01*
%TO.C,R9*%
X113787500Y-107351359D02*
X113787500Y-107658641D01*
X114547500Y-107351359D02*
X114547500Y-107658641D01*
%TO.C,C3*%
X111885000Y-99200580D02*
X111885000Y-98919420D01*
X112905000Y-99200580D02*
X112905000Y-98919420D01*
%TO.C,J1*%
X97016000Y-117009000D02*
X97016000Y-118929000D01*
X97016000Y-122644000D02*
X97016000Y-120939000D01*
X106176000Y-118929000D02*
X106176000Y-117009000D01*
X106176000Y-120939000D02*
X106176000Y-122644000D01*
X106176000Y-122644000D02*
X97016000Y-122644000D01*
%TO.C,C14*%
X116064420Y-104011000D02*
X116345580Y-104011000D01*
X116064420Y-105031000D02*
X116345580Y-105031000D01*
%TO.C,D4*%
X87455800Y-93580000D02*
X87455800Y-94380000D01*
X88815800Y-93580000D02*
X87455800Y-93580000D01*
X88815800Y-94380000D02*
X87455800Y-94380000D01*
%TO.C,C2*%
X84961000Y-107353980D02*
X84961000Y-107072820D01*
X85981000Y-107353980D02*
X85981000Y-107072820D01*
%TO.C,R13*%
X94131641Y-110618000D02*
X93824359Y-110618000D01*
X94131641Y-111378000D02*
X93824359Y-111378000D01*
D10*
%TO.C,U6*%
X115900200Y-92710000D02*
X115900200Y-94742000D01*
X115900200Y-94742000D02*
X115900200Y-95758000D01*
X118694200Y-92710000D02*
X115900200Y-92710000D01*
X118948200Y-92964000D02*
X118948200Y-95250000D01*
X118948200Y-95758000D02*
X115900200Y-95758000D01*
X118948200Y-95758000D02*
X118948200Y-95250000D01*
X118948200Y-92964000D02*
X118948190Y-92961250D01*
X118948160Y-92958519D01*
X118948111Y-92955808D01*
X118948042Y-92953117D01*
X118947953Y-92950445D01*
X118947845Y-92947793D01*
X118947718Y-92945160D01*
X118947572Y-92942546D01*
X118947407Y-92939951D01*
X118947224Y-92937375D01*
X118947021Y-92934817D01*
X118946800Y-92932278D01*
X118946561Y-92929757D01*
X118946304Y-92927255D01*
X118946028Y-92924770D01*
X118945734Y-92922305D01*
X118945422Y-92919855D01*
X118945093Y-92917425D01*
X118944746Y-92915011D01*
X118944381Y-92912616D01*
X118943998Y-92910237D01*
X118943599Y-92907876D01*
X118943182Y-92905531D01*
X118942747Y-92903204D01*
X118942296Y-92900892D01*
X118941828Y-92898599D01*
X118941342Y-92896321D01*
X118940840Y-92894061D01*
X118940321Y-92891815D01*
X118939785Y-92889587D01*
X118939233Y-92887373D01*
X118938664Y-92885178D01*
X118938078Y-92882996D01*
X118937477Y-92880832D01*
X118936858Y-92878681D01*
X118936224Y-92876548D01*
X118935573Y-92874427D01*
X118934907Y-92872325D01*
X118933525Y-92868163D01*
X118932080Y-92864060D01*
X118930571Y-92860016D01*
X118928998Y-92856030D01*
X118927363Y-92852100D01*
X118925665Y-92848227D01*
X118923905Y-92844409D01*
X118922082Y-92840646D01*
X118920197Y-92836937D01*
X118918251Y-92833282D01*
X118916242Y-92829679D01*
X118914172Y-92826128D01*
X118912039Y-92822628D01*
X118909845Y-92819180D01*
X118907588Y-92815781D01*
X118905269Y-92812433D01*
X118902888Y-92809134D01*
X118900444Y-92805884D01*
X118897938Y-92802683D01*
X118895369Y-92799530D01*
X118892736Y-92796425D01*
X118890040Y-92793368D01*
X118887280Y-92790358D01*
X118884455Y-92787396D01*
X118881566Y-92784481D01*
X118878612Y-92781613D01*
X118875593Y-92778793D01*
X118872508Y-92776019D01*
X118869356Y-92773293D01*
X118866138Y-92770614D01*
X118862854Y-92767982D01*
X118859502Y-92765398D01*
X118856082Y-92762862D01*
X118852594Y-92760374D01*
X118849037Y-92757935D01*
X118845412Y-92755544D01*
X118841718Y-92753203D01*
X118837955Y-92750912D01*
X118834122Y-92748671D01*
X118830220Y-92746481D01*
X118826249Y-92744342D01*
X118822208Y-92742257D01*
X118818098Y-92740224D01*
X118813919Y-92738245D01*
X118809671Y-92736321D01*
X118805356Y-92734453D01*
X118800974Y-92732642D01*
X118796525Y-92730889D01*
X118792012Y-92729194D01*
X118787436Y-92727560D01*
X118782799Y-92725988D01*
X118778103Y-92724478D01*
X118773351Y-92723032D01*
X118768546Y-92721652D01*
X118763693Y-92720340D01*
X118758796Y-92719096D01*
X118753861Y-92717923D01*
X118748895Y-92716822D01*
X118743907Y-92715795D01*
X118738908Y-92714845D01*
X118733909Y-92713972D01*
X118728927Y-92713180D01*
X118723983Y-92712471D01*
X118719102Y-92711846D01*
X118714318Y-92711309D01*
X118709679Y-92710862D01*
X118705254Y-92710506D01*
X118701148Y-92710245D01*
X118697547Y-92710079D01*
X118694864Y-92710007D01*
X118694200Y-92710000D01*
D12*
%TO.C,C12*%
X85022504Y-109946779D02*
X84870001Y-110099282D01*
X85531621Y-110455896D02*
X85379118Y-110608399D01*
D10*
%TO.C,D7*%
X116130200Y-102387400D02*
G75*
G02*
X116030200Y-102387400I-50000J0D01*
G01*
X116030200Y-102387400D02*
G75*
G02*
X116130200Y-102387400I50000J0D01*
G01*
%TD*%
%LPC*%
D13*
%TO.C,R12*%
X116662200Y-101142800D03*
X117682200Y-101142800D03*
%TD*%
D14*
%TO.C,FB1*%
X95250000Y-117015500D03*
X95250000Y-115140500D03*
%TD*%
D15*
%TO.C,C5*%
X88694200Y-93065600D03*
X87734200Y-93065600D03*
%TD*%
D16*
%TO.C,R2*%
X107438000Y-119915400D03*
X107438000Y-118895400D03*
%TD*%
D17*
%TO.C,C13*%
X120028000Y-104521000D03*
X118478000Y-104521000D03*
%TD*%
D18*
%TO.C,SW4*%
X90254668Y-116657643D03*
X86542357Y-112945332D03*
X91456749Y-115455562D03*
X87744438Y-111743251D03*
%TD*%
D16*
%TO.C,R5*%
X112903000Y-95426700D03*
X112903000Y-94406700D03*
%TD*%
D19*
%TO.C,C8*%
X115392200Y-98699200D03*
X115392200Y-97739200D03*
%TD*%
D20*
%TO.C,U5*%
X118414800Y-96754400D03*
X118414800Y-97404400D03*
X118414800Y-98054400D03*
X118414800Y-98704400D03*
X116364800Y-98704400D03*
X116364800Y-98054400D03*
X116364800Y-97404400D03*
X116364800Y-96754400D03*
%TD*%
D21*
%TO.C,D3*%
X112522000Y-91995700D03*
X114322000Y-91995700D03*
X112522000Y-92945700D03*
X114322000Y-92945700D03*
%TD*%
D22*
%TO.C,C9*%
X91338400Y-102466200D03*
X91338400Y-103426200D03*
%TD*%
D23*
%TO.C,R10*%
X88698800Y-92125800D03*
X87678800Y-92125800D03*
%TD*%
D24*
%TO.C,D2*%
X93280000Y-118491000D03*
X94680000Y-118491000D03*
%TD*%
D25*
%TO.C,U2*%
X95797000Y-111095500D03*
D26*
X95722000Y-111633000D03*
D25*
X95797000Y-112170500D03*
X97497000Y-112170500D03*
D26*
X97572000Y-111633000D03*
D25*
X97497000Y-111095500D03*
%TD*%
D22*
%TO.C,C10*%
X115392200Y-95834200D03*
X115392200Y-96794200D03*
%TD*%
D27*
%TO.C,D9*%
X106045000Y-111441000D03*
X106045000Y-112841000D03*
%TD*%
D28*
%TO.C,C1*%
X89240992Y-109941992D03*
X90337008Y-111038008D03*
%TD*%
D29*
%TO.C,U8*%
X92850000Y-91669000D03*
X92850000Y-92939000D03*
X92850000Y-94209000D03*
X92850000Y-95479000D03*
X92850000Y-96749000D03*
X92850000Y-98019000D03*
X92850000Y-99289000D03*
X92850000Y-100559000D03*
X92850000Y-101829000D03*
X92850000Y-103099000D03*
X92850000Y-104369000D03*
X92850000Y-105639000D03*
X92850000Y-106909000D03*
X92850000Y-108179000D03*
X110350000Y-108179000D03*
X110350000Y-106909000D03*
X110350000Y-105639000D03*
X110350000Y-104369000D03*
X110350000Y-103099000D03*
X110350000Y-101829000D03*
X110350000Y-100559000D03*
X110350000Y-99289000D03*
X110350000Y-98019000D03*
X110350000Y-96749000D03*
X110350000Y-95479000D03*
X110350000Y-94209000D03*
X110350000Y-92939000D03*
X110350000Y-91669000D03*
D30*
X98845000Y-96139000D03*
X98845000Y-97389000D03*
X98845000Y-98639000D03*
X100095000Y-96139000D03*
X100095000Y-97389000D03*
X100095000Y-98639000D03*
X101345000Y-96139000D03*
X101345000Y-97389000D03*
X101345000Y-98639000D03*
%TD*%
D31*
%TO.C,U3*%
X89402500Y-108138000D03*
X89402500Y-107188000D03*
X89402500Y-106238000D03*
X87127500Y-106238000D03*
X87127500Y-108138000D03*
%TD*%
D32*
%TO.C,D5*%
X111167985Y-117390985D03*
X110574015Y-116797015D03*
%TD*%
D33*
%TO.C,D1*%
X91290000Y-91440000D03*
X90320000Y-91440000D03*
%TD*%
D34*
%TO.C,Q1*%
X109408000Y-111838500D03*
X107508000Y-111838500D03*
X108458000Y-113713500D03*
%TD*%
D16*
%TO.C,R15*%
X110683000Y-112473500D03*
X110683000Y-111453500D03*
%TD*%
D35*
%TO.C,Y1*%
X89712800Y-104272400D03*
X89712800Y-101772400D03*
%TD*%
D17*
%TO.C,C4*%
X113932000Y-105404500D03*
X112382000Y-105404500D03*
%TD*%
D16*
%TO.C,R8*%
X89789000Y-98808000D03*
X89789000Y-97788000D03*
%TD*%
D36*
%TO.C,F1*%
X93967000Y-113538000D03*
X95517000Y-113538000D03*
%TD*%
D37*
%TO.C,SW3*%
X116657643Y-112945332D03*
X112945332Y-116657643D03*
X115455562Y-111743251D03*
X111743251Y-115455562D03*
%TD*%
D31*
%TO.C,U1*%
X117845000Y-107945000D03*
X117845000Y-106995000D03*
X117845000Y-106045000D03*
X115570000Y-106045000D03*
X115570000Y-107945000D03*
%TD*%
D15*
%TO.C,C6*%
X91285000Y-93497400D03*
X90325000Y-93497400D03*
%TD*%
D16*
%TO.C,R4*%
X111887000Y-95426700D03*
X111887000Y-94406700D03*
%TD*%
D13*
%TO.C,R11*%
X116658200Y-103327200D03*
X117678200Y-103327200D03*
%TD*%
D38*
%TO.C,U4*%
X114107000Y-101473000D03*
X113157000Y-101473000D03*
X112207000Y-101473000D03*
X112207000Y-103748000D03*
X114107000Y-103748000D03*
%TD*%
D19*
%TO.C,C7*%
X88646000Y-95857000D03*
X88646000Y-94897000D03*
%TD*%
D39*
%TO.C,J2*%
X86836000Y-100100000D03*
X86836000Y-101100000D03*
X86836000Y-102100000D03*
X86836000Y-103100000D03*
D40*
X82961000Y-98800000D03*
X82961000Y-104400000D03*
%TD*%
D41*
%TO.C,D8*%
X116689200Y-100203000D03*
X117659200Y-100203000D03*
%TD*%
D16*
%TO.C,R6*%
X113919000Y-95426700D03*
X113919000Y-94406700D03*
%TD*%
%TO.C,R1*%
X95754000Y-119788400D03*
X95754000Y-118768400D03*
%TD*%
D42*
%TO.C,R14*%
X86323435Y-110678965D03*
X85602187Y-111400213D03*
%TD*%
D23*
%TO.C,R3*%
X91315000Y-92481400D03*
X90295000Y-92481400D03*
%TD*%
D16*
%TO.C,R7*%
X91059000Y-98808000D03*
X91059000Y-97788000D03*
%TD*%
D43*
%TO.C,U7*%
X91074000Y-94985000D03*
X90424000Y-94985000D03*
X89774000Y-94985000D03*
X89774000Y-96785000D03*
X90424000Y-96785000D03*
X91074000Y-96785000D03*
%TD*%
D19*
%TO.C,C11*%
X91338400Y-101597400D03*
X91338400Y-100637400D03*
%TD*%
D44*
%TO.C,D6*%
X92032015Y-117390985D03*
X92625985Y-116797015D03*
%TD*%
D45*
%TO.C,R9*%
X114167500Y-106995000D03*
X114167500Y-108015000D03*
%TD*%
D46*
%TO.C,C3*%
X112395000Y-99835000D03*
X112395000Y-98285000D03*
%TD*%
D47*
%TO.C,J1*%
X98706000Y-116254000D03*
X104486000Y-116254000D03*
D48*
X98246000Y-115189000D03*
X99046000Y-115189000D03*
X100346000Y-115189000D03*
X101346000Y-115189000D03*
X101846000Y-115189000D03*
X102846000Y-115189000D03*
X104146000Y-115189000D03*
X104946000Y-115189000D03*
X104646000Y-115189000D03*
X103846000Y-115189000D03*
X103346000Y-115189000D03*
X102346000Y-115189000D03*
X100846000Y-115189000D03*
X99846000Y-115189000D03*
X99346000Y-115189000D03*
X98546000Y-115189000D03*
D49*
X97276000Y-115754000D03*
D50*
X97276000Y-119934000D03*
D49*
X105916000Y-115754000D03*
D50*
X105916000Y-119934000D03*
%TD*%
D36*
%TO.C,C14*%
X115430000Y-104521000D03*
X116980000Y-104521000D03*
%TD*%
D51*
%TO.C,D4*%
X87895800Y-93980000D03*
X88735800Y-93980000D03*
%TD*%
D46*
%TO.C,C2*%
X85471000Y-107988400D03*
X85471000Y-106438400D03*
%TD*%
D23*
%TO.C,R13*%
X94488000Y-110998000D03*
X93468000Y-110998000D03*
%TD*%
D52*
%TO.C,U6*%
X118474200Y-93184000D03*
X117424200Y-93184000D03*
X116374200Y-93184000D03*
X116374200Y-94234000D03*
X116374200Y-95284000D03*
X117424200Y-95284000D03*
X118474200Y-95284000D03*
X118474200Y-94234000D03*
X117424200Y-94234000D03*
%TD*%
D53*
%TO.C,C12*%
X85540222Y-109938178D03*
X84861400Y-110617000D03*
%TD*%
D41*
%TO.C,D7*%
X116685200Y-102387400D03*
X117655200Y-102387400D03*
%TD*%
D54*
%TO.C,J3*%
X119507000Y-102616000D03*
D55*
X119507000Y-100616000D03*
%TD*%
%LPD*%
M02*
