M48
; DRILL file {KiCad 9.0.6} date 2026-01-06T14:18:23+0100
; FORMAT={-:-/ absolute / inch / decimal}
; #@! TF.CreationDate,2026-01-06T14:18:23+01:00
; #@! TF.GenerationSoftware,Kicad,Pcbnew,9.0.6
; #@! TF.FileFunction,Plated,1,4,PTH
FMAT,2
INCH
; #@! TA.AperFunction,Plated,PTH,ViaDrill
T1C0.0118
; #@! TA.AperFunction,Plated,PTH,ComponentDrill
T2C0.0236
; #@! TA.AperFunction,Plated,PTH,ComponentDrill
T3C0.0295
%
G90
G05
T1
X3.313Y-4.305
X3.315Y-4.25
X3.349Y-4.407
X3.36Y-3.585
X3.37Y-3.98
X3.405Y-4.305
X3.41Y-3.585
X3.42Y-3.6437
X3.455Y-3.775
X3.46Y-3.585
X3.465Y-4.338
X3.472Y-4.113
X3.495Y-4.505
X3.51Y-3.585
X3.51Y-3.965
X3.518Y-4.439
X3.52Y-4.049
X3.527Y-3.62
X3.528Y-3.68
X3.532Y-4.148
X3.535Y-3.915
X3.554Y-3.965
X3.585Y-3.915
X3.596Y-4.113
X3.6547Y-4.3499
X3.685Y-4.615
X3.7Y-4.11
X3.705Y-3.66
X3.715Y-3.96
X3.72Y-4.71
X3.725Y-3.585
X3.73Y-4.4408
X3.775Y-3.585
X3.815Y-4.395
X3.825Y-3.585
X3.875Y-3.585
X3.9Y-4.74
X3.906Y-4.468
X3.925Y-3.585
X3.95Y-4.74
X3.975Y-3.585
X4.0Y-4.605
X4.0Y-4.74
X4.025Y-3.585
X4.05Y-4.74
X4.075Y-3.585
X4.096Y-4.468
X4.1Y-4.74
X4.105Y-3.635
X4.119Y-4.395
X4.125Y-3.585
X4.174Y-4.315
X4.175Y-3.585
X4.225Y-3.585
X4.254Y-3.896
X4.275Y-3.585
X4.276Y-4.395
X4.28Y-4.71
X4.289Y-4.057
X4.29Y-3.76
X4.29Y-3.8
X4.29Y-4.209
X4.292Y-4.11
X4.294Y-4.009
X4.294Y-4.155
X4.302Y-4.477
X4.407Y-4.224
X4.425Y-3.6869
X4.435Y-3.585
X4.47Y-3.905
X4.485Y-3.585
X4.486Y-3.81
X4.507Y-3.87
X4.515Y-4.515
X4.5323Y-4.0677
X4.535Y-3.585
X4.542Y-3.7443
X4.549Y-3.637
X4.549Y-4.213
X4.557Y-4.023
X4.5585Y-3.9165
X4.581Y-3.633
X4.585Y-3.585
X4.595Y-4.16
X4.623Y-3.633
X4.6274Y-3.7848
X4.63Y-3.886
X4.635Y-3.585
X4.6396Y-4.2996
X4.65Y-4.4
X4.6567Y-4.0068
X4.675Y-4.355
X4.686Y-3.862
X4.6931Y-3.8095
X4.6933Y-3.778
X4.7Y-4.305
X4.705Y-4.175
X4.706Y-3.709
X4.72Y-4.255
X4.735Y-4.205
X4.7482Y-3.8473
X4.755Y-3.895
X4.76Y-4.07
X4.765Y-4.005
T3
X4.705Y-3.9613
X4.705Y-4.04
T2
G00X3.8298Y-4.5356
M15
G01X3.8298Y-4.5789
M16
G05
G00X3.8298Y-4.71
M15
G01X3.8298Y-4.7336
M16
G05
G00X4.1699Y-4.5356
M15
G01X4.1699Y-4.5789
M16
G05
G00X4.1699Y-4.71
M15
G01X4.1699Y-4.7336
M16
G05
M30
